<svg version="1.2" xmlns="http://www.w3.org/2000/svg" viewBox="0 0 380 60" width="380" height="60"><defs><linearGradient id="P" gradientUnits="userSpaceOnUse"/><linearGradient id="g1" x2="1" href="#P" gradientTransform="matrix(50.614,0,0,12.571,3,3.5)"><stop stop-color="#98c222"/><stop offset="1" stop-color="#d1e49d"/></linearGradient><linearGradient id="g2" x2="1" href="#P" gradientTransform="matrix(36.264,0,0,38.909,9.015,19.091)"><stop stop-color="#98c222"/><stop offset="1" stop-color="#d1e49d"/></linearGradient></defs><style>.a{fill:url(#g1)}.b{fill:url(#g2)}.c{fill:#232323}</style><path fill-rule="evenodd" class="a" d="m53.6 3.7l-38.5-0.2c-3.4 0-5 1-6.9 3.7l-5.2 8.9 35.3-0.1c4.9 0.1 9.2-1.8 11.5-5.9z"/><path fill-rule="evenodd" class="b" d="m45.3 19.2l-20.7-0.1c-3.7 0-7.3 1.1-10.2 3.3-2.8 2.1-5.4 5.6-5.4 11 0 1.6 0.3 3.2 0.8 4.7 0.4 0.9 0.8 2 1.4 3 1.5 3 10.4 16.9 10.4 16.9l5.6-9.4c1-1.6 1.2-3.6 0.6-5.3q-0.2-0.9-0.9-1.7c-1.8-2.3-6.5-10.5-6.5-10.5h15.8c0 0 4.2 0.3 9.1-11.9z"/><path fill-rule="evenodd" class="c" d="m71 49.6v-38h24.4v7.5h-16.3v6.4h13.5v7.5h-13.5v16.6z"/><path fill-rule="evenodd" class="c" d="m106 8.9v40.7h-8.1v-40.7z"/><path fill-rule="evenodd" class="c" d="m123 50.3q-4.1 0-7.4-1.9-3.4-1.9-5.4-5.2-2-3.2-2-7.2 0-2.9 1.2-5.5 1.1-2.6 3.2-4.6 2-1.9 4.7-3.1 2.6-1.1 5.7-1.1 3.5 0 6.4 1.4 2.9 1.4 4.9 3.8 2 2.4 2.9 5.4 0.9 3 0.3 6.2h-20.5q0.4 1.2 1.2 2.2 0.8 1 2 1.5 1.2 0.6 2.8 0.6 1.5 0.1 2.8-0.6 1.3-0.7 2.2-1.8l8.3 1.7q-1.8 3.6-5.3 5.9-3.6 2.3-8 2.3zm-6.3-17.3h12.6q-0.4-1.3-1.3-2.4-1-1.1-2.2-1.7-1.3-0.7-2.8-0.7-1.5 0-2.8 0.7-1.3 0.6-2.2 1.7-0.9 1-1.3 2.4z"/><path fill-rule="evenodd" class="c" d="m154 50.3q-4 0-7.4-1.9-3.3-1.9-5.3-5.2-2-3.2-2-7.2 0-2.9 1.1-5.5 1.2-2.6 3.2-4.6 2-1.9 4.7-3.1 2.7-1.1 5.7-1.1 3.5 0 6.4 1.4 2.9 1.4 4.9 3.8 2.1 2.4 2.9 5.4 0.9 3 0.3 6.2h-20.4q0.3 1.2 1.2 2.2 0.8 1 2 1.5 1.2 0.6 2.7 0.6 1.6 0.1 2.8-0.6 1.3-0.7 2.3-1.8l8.3 1.7q-1.8 3.6-5.4 5.9-3.6 2.3-8 2.3zm-6.2-17.3h12.5q-0.4-1.3-1.3-2.4-0.9-1.1-2.2-1.7-1.3-0.7-2.8-0.7-1.5 0-2.7 0.7-1.3 0.6-2.2 1.7-0.9 1-1.3 2.4z"/><path fill-rule="evenodd" class="c" d="m197.8 49.6h-9.4l-6.3-9.9-3.6 3.9v6h-8.1v-40.7h8.1v23.1l8.7-9.5h10.6l-10.1 11.1z"/><path fill-rule="evenodd" class="c" d="m223.2 49.6l-15-38h8.7l11.5 29.4 11.6-29.4h8.6l-14.9 38z"/><path fill-rule="evenodd" class="c" d="m258.9 50.3q-4.1 0-7.4-1.9-3.4-1.9-5.4-5.2-2-3.2-2-7.2 0-2.9 1.2-5.5 1.1-2.6 3.2-4.6 2-1.9 4.7-3.1 2.6-1.1 5.7-1.1 3.5 0 6.4 1.4 2.9 1.4 4.9 3.8 2 2.4 2.9 5.4 0.9 3 0.3 6.2h-20.5q0.4 1.2 1.2 2.2 0.8 1 2 1.5 1.2 0.6 2.8 0.6 1.5 0.1 2.8-0.6 1.3-0.7 2.2-1.8l8.3 1.7q-1.8 3.6-5.3 5.9-3.6 2.3-8 2.3zm-6.3-17.3h12.5q-0.3-1.3-1.2-2.4-1-1.1-2.2-1.7-1.3-0.7-2.8-0.7-1.5 0-2.8 0.7-1.3 0.6-2.2 1.7-0.9 1-1.3 2.4z"/><path fill-rule="evenodd" class="c" d="m276.4 49.6v-27.1h8.1v2q1.5-1.3 3.5-2 2-0.8 4.2-0.8 1.6 0 3.3 0.5l-3.3 7.5q-1-0.4-2.1-0.4-1.5 0-2.8 0.7-1.3 0.7-2 1.8-0.8 1.2-0.8 2.6v15.2z"/><path fill-rule="evenodd" class="c" d="m314.5 30h-5.3v19.6h-8.2v-19.6h-4v-7.5h4v-8.5h8.2v8.5h5.3z"/><path fill-rule="evenodd" class="c" d="m330.2 50.3q-4 0-7.4-1.9-3.3-1.9-5.3-5.2-2-3.2-2-7.2 0-2.9 1.1-5.5 1.2-2.6 3.2-4.6 2-1.9 4.7-3.1 2.7-1.1 5.7-1.1 3.5 0 6.4 1.4 2.9 1.4 5 3.8 2 2.4 2.9 5.4 0.8 3 0.2 6.2h-20.4q0.4 1.2 1.2 2.2 0.8 1 2 1.5 1.2 0.6 2.7 0.6 1.6 0.1 2.9-0.6 1.3-0.7 2.2-1.8l8.3 1.7q-1.8 3.6-5.4 5.9-3.5 2.3-8 2.3zm-6.2-17.3h12.5q-0.4-1.3-1.3-2.4-0.9-1.1-2.2-1.7-1.3-0.7-2.8-0.7-1.4 0-2.7 0.7-1.3 0.6-2.2 1.7-0.9 1-1.3 2.4z"/><path fill-rule="evenodd" class="c" d="m343.5 49.6l10.8-13.6-10.7-13.5h10l5.7 7.1 5.6-7.1h10.1l-10.7 13.5 10.8 13.6h-10l-5.8-7.3-5.8 7.3z"/></svg>